<svg width="31" height="13" viewBox="0 0 31 13" fill="none" xmlns="http://www.w3.org/2000/svg">
<path fill-rule="evenodd" clip-rule="evenodd" d="M30.9144 6.71426C30.9144 4.5219 29.8525 2.79199 27.8229 2.79199C25.7848 2.79199 24.5517 4.5219 24.5517 6.69713C24.5517 9.27487 26.0075 10.5766 28.097 10.5766C29.116 10.5766 29.8867 10.3454 30.4691 10.0199V8.30715C29.8867 8.59832 29.2188 8.77816 28.371 8.77816C27.5403 8.77816 26.8039 8.48699 26.7097 7.47645H30.8972C30.8972 7.36512 30.9144 6.91979 30.9144 6.71426ZM26.684 5.90069C26.684 4.93297 27.2749 4.53046 27.8144 4.53046C28.3367 4.53046 28.8934 4.93297 28.8934 5.90069H26.684Z" fill="#6772E5"/>
<path fill-rule="evenodd" clip-rule="evenodd" d="M21.2461 2.79199C20.4069 2.79199 19.8674 3.18593 19.5677 3.45998L19.4564 2.92901H17.5724V12.9145L19.7133 12.4606L19.7218 10.0371C20.0301 10.2597 20.484 10.5766 21.2376 10.5766C22.7704 10.5766 24.1663 9.34338 24.1663 6.62862C24.1577 4.14509 22.7448 2.79199 21.2461 2.79199ZM20.7323 8.69252C20.2271 8.69252 19.9274 8.51268 19.7218 8.29002L19.7133 5.11281C19.9359 4.86446 20.2442 4.69318 20.7323 4.69318C21.5116 4.69318 22.0511 5.5667 22.0511 6.68857C22.0511 7.83613 21.5202 8.69252 20.7323 8.69252Z" fill="#6772E5"/>
<path fill-rule="evenodd" clip-rule="evenodd" d="M16.776 1.82441V0.0859375L14.6265 0.539824V2.28686L16.776 1.82441Z" fill="#6772E5"/>
<path d="M16.776 2.9375H14.6265V10.4309H16.776V2.9375Z" fill="#6772E5"/>
<path fill-rule="evenodd" clip-rule="evenodd" d="M12.3229 3.57186L12.1859 2.93813H10.3362V10.4315H12.4771V5.35315C12.9823 4.69373 13.8387 4.81362 14.1041 4.90783V2.93813C13.8301 2.83536 12.8282 2.64696 12.3229 3.57186Z" fill="#6772E5"/>
<path fill-rule="evenodd" clip-rule="evenodd" d="M8.04115 1.0791L5.95165 1.52442L5.94308 8.38411C5.94308 9.65157 6.89364 10.585 8.16104 10.585C8.86325 10.585 9.37706 10.4566 9.65966 10.3024V8.56395C9.38563 8.67528 8.03259 9.06922 8.03259 7.80177V4.76158H9.65966V2.93747H8.03259L8.04115 1.0791Z" fill="#6772E5"/>
<path fill-rule="evenodd" clip-rule="evenodd" d="M2.25221 5.11281C2.25221 4.77882 2.52624 4.65036 2.98011 4.65036C3.63093 4.65036 4.45303 4.84733 5.10386 5.19845V3.18593C4.39309 2.90332 3.69088 2.79199 2.98011 2.79199C1.24171 2.79199 0.0856323 3.69977 0.0856323 5.21558C0.0856323 7.57921 3.33977 7.2024 3.33977 8.22151C3.33977 8.61545 2.99723 8.74391 2.51767 8.74391C1.8069 8.74391 0.899167 8.45273 0.179831 8.05879V10.097C0.976239 10.4396 1.78121 10.5851 2.51767 10.5851C4.29889 10.5851 5.52347 9.70306 5.52347 8.17012C5.51491 5.61808 2.25221 6.07197 2.25221 5.11281Z" fill="#6772E5"/>
</svg>
