<svg width="20" height="13" viewBox="0 0 20 13" fill="none" xmlns="http://www.w3.org/2000/svg">
<g clip-path="url(#clip0_1_1915)">
<path d="M12.6387 2.26465H7.36282V10.7333H12.6387V2.26465Z" fill="#FF5F00"/>
<path d="M7.90622 6.49999C7.90557 5.68453 8.09366 4.87961 8.45628 4.14614C8.81889 3.41267 9.34652 2.76987 9.99923 2.26639C9.19081 1.642 8.21996 1.25373 7.19764 1.14596C6.17531 1.03818 5.14276 1.21525 4.21799 1.65692C3.29321 2.09859 2.51353 2.78704 1.96805 3.6436C1.42257 4.50016 1.1333 5.49026 1.1333 6.50074C1.1333 7.51122 1.42257 8.50132 1.96805 9.35788C2.51353 10.2144 3.29321 10.9029 4.21799 11.3446C5.14276 11.7862 6.17531 11.9633 7.19764 11.8555C8.21996 11.7477 9.19081 11.3595 9.99923 10.7351C9.34631 10.2315 8.81856 9.58842 8.45594 8.85467C8.09332 8.12092 7.90534 7.3157 7.90622 6.49999Z" fill="#EB001B"/>
<path d="M18.3423 9.83737V9.66383H18.4184V9.62793H18.2373V9.66383H18.3088V9.83737H18.3423ZM18.694 9.83737V9.62793H18.6392L18.5752 9.77753L18.5113 9.62793H18.4565V9.83737H18.4961V9.67879L18.5554 9.81493H18.5965L18.6559 9.67879V9.83737H18.694Z" fill="#F79E1B"/>
<path d="M18.866 6.50016C18.8659 7.51071 18.5766 8.50088 18.031 9.35746C17.4855 10.214 16.7057 10.9025 15.7808 11.3441C14.8559 11.7857 13.8232 11.9627 12.8008 11.8547C11.7785 11.7468 10.8076 11.3583 9.99924 10.7338C10.6517 10.2298 11.1792 9.58685 11.5419 8.85334C11.9046 8.11983 12.093 7.31495 12.093 6.49941C12.093 5.68387 11.9046 4.87898 11.5419 4.14547C11.1792 3.41196 10.6517 2.76899 9.99924 2.26506C10.8076 1.64048 11.7785 1.25202 12.8008 1.14409C13.8232 1.03616 14.8559 1.21311 15.7808 1.65472C16.7057 2.09632 17.4855 2.78477 18.031 3.64135C18.5766 4.49794 18.8659 5.4881 18.866 6.49866V6.50016Z" fill="#F79E1B"/>
</g>
<defs>
<clipPath id="clip0_1_1915">
<rect width="20" height="13" fill="white"/>
</clipPath>
</defs>
</svg>
