<svg width="52" height="52" viewBox="0 0 52 52" fill="none" xmlns="http://www.w3.org/2000/svg">
<path d="M26 0C11.6428 0 0 11.6428 0 26C0 40.3572 11.6428 52 26 52C40.3572 52 52 40.3572 52 26C52 11.6428 40.3572 0 26 0ZM40.8396 32.1552C40.7674 33.7445 40.5147 34.8296 40.1458 35.7794C39.3701 37.7848 37.7848 39.3701 35.7794 40.1458C34.83 40.5147 33.7445 40.767 32.1556 40.8396C30.5636 40.9122 30.055 40.9297 26.0004 40.9297C21.9454 40.9297 21.4372 40.9122 19.8448 40.8396C18.2559 40.767 17.1704 40.5147 16.221 40.1458C15.2245 39.7708 14.3223 39.1833 13.5764 38.4236C12.8171 37.6781 12.2296 36.7755 11.8546 35.7794C11.4857 34.83 11.233 33.7445 11.1608 32.1556C11.0874 30.5632 11.0703 30.0546 11.0703 26C11.0703 21.9454 11.0874 21.4368 11.1604 19.8448C11.2326 18.2555 11.4849 17.1704 11.8539 16.2206C12.2288 15.2245 12.8167 14.3219 13.5764 13.5764C14.3219 12.8167 15.2245 12.2292 16.2206 11.8542C17.1704 11.4853 18.2555 11.233 19.8448 11.1604C21.4368 11.0878 21.9454 11.0703 26 11.0703C30.0546 11.0703 30.5632 11.0878 32.1552 11.1608C33.7445 11.233 34.8296 11.4853 35.7794 11.8539C36.7755 12.2288 37.6781 12.8167 38.424 13.5764C39.1833 14.3223 39.7712 15.2245 40.1458 16.2206C40.5151 17.1704 40.7674 18.2555 40.84 19.8448C40.9126 21.4368 40.9297 21.9454 40.9297 26C40.9297 30.0546 40.9126 30.5632 40.8396 32.1552Z" fill="white"/>
</svg>
